Coordinates
version=1
nRows=10
nColumns=46
inDegrees=yes

Units are S.I. units (second, meters, Newtons, ...)
Angles are in degrees.

endheader
time	pelvis_tilt	pelvis_list	pelvis_rotation	pelvis_tx	pelvis_ty	pelvis_tz	bb_angle	bb_tx	bb_ty	bb_tz	hip_flexion_r	hip_adduction_r	hip_rotation_r	knee_angle_r	knee_angle_r_beta	ankle_angle_r	subtalar_angle_r	mtp_angle_r	crank_angle_r	hip_flexion_l	hip_adduction_l	hip_rotation_l	knee_angle_l	knee_angle_l_beta	ankle_angle_l	subtalar_angle_l	mtp_angle_l	crank_angle_l	lumbar_extension	lumbar_bending	lumbar_rotation	arm_flex_r	arm_add_r	arm_rot_r	elbow_flex_r	pro_sup_r	wrist_flex_r	wrist_dev_r	arm_flex_l	arm_add_l	arm_rot_l	elbow_flex_l	pro_sup_l	wrist_flex_l	wrist_dev_l
      2.50000000	    -22.33306294	     -1.60785086	     -3.69619663	      0.01814774	      1.00688961	     -0.21825866	      0.00000000	      0.50000000	      0.00000000	      0.25000000	     93.48904553	      2.53435122	      4.54000383	     90.52875739	      1.58002488	     25.70587613	    -12.84442714	      0.00000000	      0.00000000	     57.63084324	     -9.77588308	     -1.94774142	     55.59450260	      0.97030712	    -24.58914972	    -11.22930650	      0.00000000	      0.00000000	    -55.17887083	      3.25643421	      3.19070659	     89.53272910	     -7.63833829	     24.82603443	     71.79224730	     41.51691301	      0.00000000	      0.00000000	     88.73374387	    -30.60871366	     31.72513068	     72.11557834	     45.23525479	      0.00000000	      0.00000000
      2.50500000	    -22.49217581	     -1.42289979	     -3.43889334	      0.01875225	      1.00663387	     -0.21814304	      0.00000000	      0.50000000	      0.00000000	      0.25000000	     93.12345764	      2.20626876	      4.63556514	     89.29646824	      1.55851738	     25.51782001	    -12.66267991	      0.00000000	      0.00000000	     58.01955609	     -9.42904932	     -1.74468445	     56.78353618	      0.99105967	    -23.67350124	    -11.61207300	      0.00000000	      0.00000000	    -55.20503836	      3.33806481	      2.94612739	     89.52829885	     -7.65069110	     24.78430760	     72.10262309	     41.50729670	      0.00000000	      0.00000000	     88.71800705	    -30.70613306	     31.75947576	     72.36639046	     45.26772294	      0.00000000	      0.00000000
      2.51000000	    -22.75676248	     -1.39316942	     -3.22634196	      0.01934677	      1.00626246	     -0.21791405	      0.00000000	      0.50000000	      0.00000000	      0.25000000	     92.81302835	      1.93021423	      4.51420340	     87.97227677	      1.53540588	     25.29146045	    -12.63250511	      0.00000000	      0.00000000	     58.57483344	     -9.26646055	     -1.42603640	     58.07474095	      1.01359544	    -22.45276315	    -11.43584529	      0.00000000	      0.00000000	    -55.20583904	      3.44737838	      2.82520878	     89.50934878	     -7.82206155	     24.79846149	     73.01833981	     41.48122858	      0.00000000	      0.00000000	     88.62234106	    -31.18453431	     31.87878059	     73.46852421	     45.43215010	      0.00000000	      0.00000000
      2.51500000	    -22.98696659	     -1.23429085	     -2.99205580	      0.01995295	      1.00592641	     -0.21772546	      0.00000000	      0.50000000	      0.00000000	      0.25000000	     92.49114434	      1.61769953	      4.56856387	     86.69576055	      1.51312647	     25.01655013	    -12.43993739	      0.00000000	      0.00000000	     59.04774127	     -8.99329441	     -1.26522583	     59.29177348	      1.03483667	    -21.37215207	    -11.49706190	      0.00000000	      0.00000000	    -55.18383603	      3.50377200	      2.60640985	     89.49468781	     -8.04124036	     24.96636339	     73.67224054	     41.69919470	      0.00000000	      0.00000000	     88.57086391	    -31.57118482	     32.09305224	     74.27778487	     45.58350229	      0.00000000	      0.00000000
      2.52000000	    -23.26189380	     -1.10151197	     -2.75662879	      0.02052710	      1.00557490	     -0.21773343	      0.00000000	      0.50000000	      0.00000000	      0.25000000	     92.17637491	      1.27143157	      4.55770801	     85.37904183	      1.49014539	     24.58214026	    -12.39017635	      0.00000000	      0.00000000	     59.57692842	     -8.69841534	     -1.05649814	     60.50861729	      1.05607460	    -20.33948998	    -11.77905053	      0.00000000	      0.00000000	    -55.09236061	      3.56849205	      2.46761437	     89.47618360	     -8.25977856	     24.90956734	     74.20702135	     42.08131757	      0.00000000	      0.00000000	     88.44585808	    -31.51992263	     31.73213279	     74.86157207	     45.68344747	      0.00000000	      0.00000000
      2.52500000	    -23.49954818	     -0.93195023	     -2.52494056	      0.02112446	      1.00520392	     -0.21765139	      0.00000000	      0.50000000	      0.00000000	      0.25000000	     91.81819128	      0.95263219	      4.66696615	     84.07123440	      1.46731985	     24.24077364	    -12.08415717	      0.00000000	      0.00000000	     60.09283461	     -8.44028265	     -0.96557807	     61.76791869	      1.07805355	    -19.21210079	    -11.82424681	      0.00000000	      0.00000000	    -55.00168628	      3.62957193	      2.34873303	     89.46238213	     -8.49476332	     24.95426863	     74.68101732	     42.41428100	      0.00000000	      0.00000000	     88.36830508	    -31.58332341	     31.77011366	     75.27580651	     45.76918074	      0.00000000	      0.00000000
      2.53000000	    -23.68533555	     -0.82541848	     -2.29905505	      0.02171959	      1.00494577	     -0.21750018	      0.00000000	      0.50000000	      0.00000000	      0.25000000	     91.39076902	      0.65157950	      4.70503261	     82.77673475	      1.44472657	     23.73790383	    -11.81077818	      0.00000000	      0.00000000	     60.60044027	     -8.26465083	     -0.83276743	     63.10792691	      1.10144111	    -17.88598280	    -11.56147516	      0.00000000	      0.00000000	    -55.00562163	      3.73046698	      2.29234820	     89.43995501	     -8.66908492	     24.80026782	     75.40893499	     42.55914379	      0.00000000	      0.00000000	     88.39257630	    -31.91343990	     32.25303841	     75.84873389	     45.88496710	      0.00000000	      0.00000000
      2.53500000	    -23.97143165	     -0.68122538	     -2.08028901	      0.02243744	      1.00477221	     -0.21755456	      0.00000000	      0.50000000	      0.00000000	      0.25000000	     90.96474248	      0.29989638	      4.62134914	     81.28270782	      1.41865088	     23.33912436	    -11.85501102	      0.00000000	      0.00000000	     61.15725136	     -8.00747716	     -0.71816596	     64.34234801	      1.12298582	    -16.76252380	    -11.62397524	      0.00000000	      0.00000000	    -54.85742185	      3.83939608	      2.20755892	     89.41826084	     -8.83470652	     24.83735227	     75.88163420	     42.58747428	      0.00000000	      0.00000000	     88.26976090	    -31.96066501	     32.18842301	     76.19356146	     45.95759052	      0.00000000	      0.00000000
      2.54000000	    -24.36047669	     -0.72998931	     -1.91050881	      0.02303239	      1.00441178	     -0.21744888	      0.00000000	      0.50000000	      0.00000000	      0.25000000	     90.61337810	      0.07582726	      4.40539657	     79.79142369	      1.39262306	     22.66398374	    -12.10738804	      0.00000000	      0.00000000	     61.94260150	     -7.96526626	     -0.50247987	     65.72059264	      1.14704073	    -15.53325414	    -11.55630327	      0.00000000	      0.00000000	    -54.76017244	      4.07164039	      2.27236549	     89.36503571	     -8.28335022	     23.73180898	     76.46253000	     42.84203863	      0.00000000	      0.00000000	     87.35900482	    -30.82863983	     28.33314357	     77.34601892	     45.97842402	      0.00000000	      0.00000000
      2.54500000	    -24.46553879	     -0.33718875	     -1.61850057	      0.02376074	      1.00448572	     -0.21779765	      0.00000000	      0.50000000	      0.00000000	      0.25000000	     90.02539013	     -0.40882989	      4.67747494	     78.41396478	      1.36858186	     22.26498135	    -11.54555039	      0.00000000	      0.00000000	     62.27039951	     -7.42876859	     -0.58370761	     66.89821517	      1.16759412	    -14.59745987	    -11.94282107	      0.00000000	      0.00000000	    -54.62312431	      4.03766587	      2.02159789	     89.37451263	     -9.21514193	     24.91037128	     76.71994653	     42.93912878	      0.00000000	      0.00000000	     88.04470933	    -31.89428343	     31.73555114	     76.69678649	     46.16124200	      0.00000000	      0.00000000
